<svg width="132" height="132" viewBox="0 0 132 132" xmlns="http://www.w3.org/2000/svg">
<path d="M30.5884 51.8103V98.573V101.418H33.4329H80.1957V98.573H35.4537L102.43 31.5964L100.41 29.5755L33.4329 96.5523V51.8103H30.5884Z" fill="currentColor"/>
<path d="M20.8228 111.184C45.7361 136.091 86.2706 136.091 111.178 111.184C136.091 86.2706 136.091 45.7361 111.178 20.8228C86.2706 -4.08456 45.7361 -4.08456 20.8228 20.8228C-4.08456 45.7361 -4.08456 86.2706 20.8228 111.184ZM112.695 19.3116C138.444 45.0546 138.444 86.9521 112.695 112.695C86.9461 138.444 45.0546 138.444 19.3116 112.695C-6.43722 86.9521 -6.43722 45.0546 19.3116 19.3116C45.0546 -6.43722 86.9461 -6.43722 112.695 19.3116Z" fill="currentColor"/>
</svg>
