<svg width="116" height="29" viewBox="0 0 116 29" fill="none" xmlns="http://www.w3.org/2000/svg">
<path d="M13.52 -1.90735e-06C17.04 -1.90735e-06 19.9333 0.719998 22.2 2.16C24.4667 3.57333 25.6267 5.68 25.68 8.48V8.96H17.4V8.8C17.4 8 17.1067 7.33333 16.52 6.8C15.9333 6.26667 15.04 6 13.84 6C12.6667 6 11.76 6.17333 11.12 6.52C10.5067 6.86667 10.2 7.29333 10.2 7.8C10.2 8.52 10.6267 9.05333 11.48 9.4C12.3333 9.74667 13.7067 10.1067 15.6 10.48C17.8133 10.9333 19.6267 11.4133 21.04 11.92C22.48 12.4 23.7333 13.2 24.8 14.32C25.8667 15.44 26.4133 16.96 26.44 18.88C26.44 22.1333 25.3333 24.5467 23.12 26.12C20.9333 27.6933 18 28.48 14.32 28.48C10.0267 28.48 6.68 27.76 4.28 26.32C1.90667 24.88 0.72 22.3333 0.72 18.68H9.08C9.08 20.0667 9.44 21 10.16 21.48C10.88 21.9333 12 22.16 13.52 22.16C14.64 22.16 15.56 22.04 16.28 21.8C17.0267 21.56 17.4 21.0667 17.4 20.32C17.4 19.6533 16.9867 19.16 16.16 18.84C15.36 18.4933 14.04 18.1333 12.2 17.76C9.96 17.28 8.10667 16.7867 6.64 16.28C5.17333 15.7467 3.89333 14.88 2.8 13.68C1.70667 12.48 1.16 10.8533 1.16 8.8C1.16 5.78666 2.32 3.57333 4.64 2.16C6.98667 0.719998 9.94667 -1.90735e-06 13.52 -1.90735e-06ZM37.9472 -1.90735e-06C42.0272 -1.90735e-06 45.2539 1.02667 47.6272 3.08C50.0005 5.10666 51.1872 8.01333 51.1872 11.8H42.7472C42.7472 10.2 42.3205 8.93333 41.4672 8C40.6405 7.06667 39.4539 6.6 37.9072 6.6C36.1205 6.6 34.8005 7.16 33.9472 8.28C33.1205 9.4 32.7072 10.96 32.7072 12.96V15.52C32.7072 17.4933 33.1205 19.0533 33.9472 20.2C34.8005 21.32 36.0939 21.88 37.8272 21.88C39.5339 21.88 40.8272 21.44 41.7072 20.56C42.5872 19.68 43.0272 18.44 43.0272 16.84H51.1872C51.1872 20.6 50.0272 23.48 47.7072 25.48C45.4139 27.48 42.1605 28.48 37.9472 28.48C33.2539 28.48 29.6939 27.28 27.2672 24.88C24.8672 22.48 23.6672 18.9333 23.6672 14.24C23.6672 9.54667 24.8672 6 27.2672 3.6C29.6939 1.2 33.2539 -1.90735e-06 37.9472 -1.90735e-06ZM73.6 28V18.08C73.6 16.8533 73.64 15.6 73.72 14.32C73.8267 13.0133 73.9333 11.92 74.04 11.04C74.1467 10.16 74.2133 9.6 74.24 9.36H74.08L69 28H62.08L56.96 9.4H56.8C56.8267 9.64 56.8933 10.2 57 11.08C57.1333 11.9333 57.2533 13.0133 57.36 14.32C57.4667 15.6 57.52 16.8533 57.52 18.08V28H49.4V0.479999H61.88L66.04 16.36H66.2L70.32 0.479999H82.36V28H73.6ZM95.4134 -1.90735e-06C100.16 -1.90735e-06 103.827 1.21333 106.413 3.64C109 6.06667 110.293 9.6 110.293 14.24C110.293 18.88 109 22.4133 106.413 24.84C103.827 27.2667 100.16 28.48 95.4134 28.48C90.6668 28.48 87.0001 27.28 84.4134 24.88C81.8534 22.4533 80.5734 18.9067 80.5734 14.24C80.5734 9.57333 81.8534 6.04 84.4134 3.64C87.0001 1.21333 90.6668 -1.90735e-06 95.4134 -1.90735e-06ZM95.4134 6.6C93.5201 6.6 92.0801 7.17333 91.0934 8.32C90.1068 9.46667 89.6134 11.0133 89.6134 12.96V15.52C89.6134 17.4667 90.1068 19.0133 91.0934 20.16C92.0801 21.3067 93.5201 21.88 95.4134 21.88C97.3068 21.88 98.7468 21.3067 99.7334 20.16C100.747 19.0133 101.253 17.4667 101.253 15.52V12.96C101.253 11.0133 100.747 9.46667 99.7334 8.32C98.7468 7.17333 97.3068 6.6 95.4134 6.6ZM107.479 28V20.04H115.959V28H107.479Z" fill="currentColor"/>
</svg>
