<svg viewBox="0 0 262 80" xmlns="http://www.w3.org/2000/svg" fill="none">
  <path d="M72.6435 46.9684C72.7082 46.876 72.773 46.7837 81.9438 36.6591C91.1146 26.5346 109.39 6.38054 104.902 2.82407C100.415 -0.732404 72.6111 12.9194 51.7534 24.9261C30.8956 36.9328 17.8262 46.8808 10.4113 52.394C2.99635 57.9072 1.6319 58.6843 2.20687 59.0228C2.78184 59.3612 5.33758 59.2376 16.4303 57.8458C27.523 56.4539 47.0753 53.7976 66.9777 52.1322C86.8801 50.4668 106.54 49.8727 117.328 49.6868C128.117 49.5009 129.437 49.7412 129.845 50.1631C130.252 50.5851 129.706 51.1816 118.594 55.3546C107.483 59.5275 85.8223 67.259 70.4545 72.1047C55.0867 76.9503 46.6678 78.6759 44.9121 77.6807C48.319 72.9172 57.1582 67.1586 63.4094 63.9423C66.1406 62.6022 67.9762 61.8548 71.0078 60.8691" stroke="currentColor" stroke-width="3" stroke-linecap="round"/>
  <path d="M89.7398 71.5514C109.758 63.5947 126.478 56.5923 132.819 54.4013C141.754 51.314 117.939 65.0736 116.568 66.844C116.332 67.6211 117.029 68.1521 117.84 68.5416C118.651 68.9311 119.555 69.1631 121.467 69.5447" stroke="currentColor" stroke-width="3" stroke-linecap="round"/>
  <path d="M122.432 67.9928C128.295 63.8995 140.989 54.9073 140.15 56.3257C138.975 58.3133 134.453 62.1984 132.856 64.3343C131.259 66.4701 132.257 66.5659 133.572 66.4409C134.886 66.3159 136.486 65.967 140.355 65.2052C144.224 64.4433 150.313 63.2789 157.957 62.357" stroke="currentColor" stroke-width="3" stroke-linecap="round"/>
  <path d="M189.113 21.6301C189.047 21.6298 188.982 21.6295 179.271 31.3163C169.561 41.0031 150.207 60.3771 148.878 68.6641C147.55 76.9511 164.832 73.564 174.968 71.2888C187.794 68.4096 195.404 63.7707 205.789 56.6056C217.327 48.6446 222.07 40.2462 224.787 36.2888C226.801 33.3552 226.798 30.8349 225.946 28.7979C225.256 27.1488 223.037 26.0607 220.733 25.097C216.231 23.2132 209.76 23.9646 197.294 27.1983C193.471 28.3795 189.672 29.7322 185.188 31.9127C180.705 34.0931 175.653 37.0604 170.447 40.1175" stroke="currentColor" stroke-width="3" stroke-linecap="round"/>
  <path d="M188.075 72.2658C198.708 66.2578 209.341 60.2497 217.779 51.6501C226.217 43.0506 232.137 32.0416 234.552 26.8674C236.966 21.6932 235.696 22.6874 229.726 30.0931C223.755 37.4988 213.123 51.2858 207.544 58.7414C201.964 66.197 201.76 66.9034 202.155 67.1253C207.772 70.283 214.219 56.4231 215.434 55.252C216.728 54.0049 215.735 59.4602 215.973 61.2872C216.154 62.6873 221.651 60.6622 226.083 59.4572C228.768 59.2747 239.091 59.6366 252.903 60.1432C257.897 60.2474 258.799 60.0413 259.729 59.829" stroke="currentColor" stroke-width="3" stroke-linecap="round"/>
  <path d="M114.42 39.0916L181.897 51.2851" stroke="currentColor" stroke-width="3" stroke-linecap="round"/>
</svg>