<svg width="125" height="129" viewBox="0 0 125 129" fill="none" xmlns="http://www.w3.org/2000/svg">
<mask id="path-1-inside-1_243_1384" fill="white">
<path d="M76.2862 128.148H48.713C48.241 128.148 47.8579 127.765 47.8579 127.293V89.4345L15.0701 108.364C14.8718 108.476 14.6391 108.508 14.4225 108.451C14.2013 108.391 14.0143 108.248 13.9003 108.051L0.115073 84.1721C-0.122057 83.7639 0.0191713 83.2395 0.429589 83.0046L33.2152 64.0753L0.429589 45.1459C0.0191713 44.9088 -0.119777 44.3866 0.115073 43.9785L13.9003 20.099C14.0143 19.903 14.2013 19.7593 14.4225 19.7C14.6368 19.643 14.8718 19.6704 15.0701 19.7867L47.8579 38.716V0.855036C47.8579 0.383056 48.241 0 48.713 0H76.2862C76.7582 0 77.1413 0.383056 77.1413 0.855036V38.7138L109.929 19.7844C110.337 19.5496 110.859 19.6886 111.099 20.0968L124.886 43.9762C124.998 44.1723 125.03 44.4049 124.971 44.6261C124.911 44.8472 124.768 45.0319 124.572 45.1459L91.784 64.0753L124.572 83.0046C124.768 83.1186 124.911 83.3033 124.971 83.5245C125.03 83.7457 124.998 83.9782 124.886 84.1743L111.099 108.054C110.857 108.464 110.328 108.599 109.929 108.366L77.1413 89.4368V127.296C77.1413 127.765 76.7582 128.148 76.2862 128.148ZM49.568 126.438H75.4312V87.9547C75.4312 87.6492 75.593 87.3665 75.8598 87.2137C76.122 87.0609 76.4526 87.0609 76.7149 87.2137L110.043 106.455L122.976 84.0558L89.6476 64.814C89.3831 64.6613 89.2189 64.3785 89.2189 64.073C89.2189 63.7675 89.3808 63.4847 89.6476 63.332L122.976 44.0902L110.043 21.6928L76.7149 40.9346C76.4526 41.0873 76.122 41.0873 75.8598 40.9346C75.5953 40.7818 75.4312 40.4991 75.4312 40.1935V1.71007H49.568V40.1958C49.568 40.5014 49.4062 40.7841 49.1394 40.9368C48.8772 41.0896 48.5466 41.0896 48.2843 40.9368L14.956 21.6951L2.02582 44.0925L35.3516 63.3342C35.6161 63.487 35.7803 63.7697 35.7803 64.0753C35.7803 64.3808 35.6184 64.6635 35.3516 64.8163L2.02582 84.058L14.956 106.458L48.2843 87.216C48.5466 87.0632 48.8772 87.0632 49.1394 87.216C49.4039 87.3687 49.568 87.6515 49.568 87.957V126.438Z"/>
</mask>
<path d="M47.8579 89.4345H56.9783V73.6378L43.2979 81.536L47.8579 89.4345ZM15.0701 108.364L19.5458 116.311L19.5882 116.287L19.6302 116.262L15.0701 108.364ZM14.4225 108.451L12.0612 117.26L12.0813 117.265L12.1014 117.271L14.4225 108.451ZM13.9003 108.051L6.0016 112.611L6.00861 112.623L6.01567 112.636L13.9003 108.051ZM0.115073 84.1721L8.01378 79.6122L8.00743 79.6012L8.00105 79.5903L0.115073 84.1721ZM0.429589 83.0046L4.9593 90.9206L4.97461 90.9119L4.98989 90.9031L0.429589 83.0046ZM33.2152 64.0753L37.7755 71.9737L51.4555 64.0753L37.7755 56.1768L33.2152 64.0753ZM0.429589 45.1459L-4.13314 53.0429L-4.13071 53.0443L0.429589 45.1459ZM0.115073 43.9785L-7.78365 39.4187L-7.79002 39.4298L0.115073 43.9785ZM13.9003 20.099L6.01567 15.5149L6.00861 15.5271L6.00159 15.5392L13.9003 20.099ZM14.4225 19.7L12.0783 10.886L12.0697 10.8883L12.0612 10.8906L14.4225 19.7ZM15.0701 19.7867L10.4578 27.6548L10.4839 27.6701L10.5101 27.6852L15.0701 19.7867ZM47.8579 38.716L43.2979 46.6146L56.9783 54.5127V38.716H47.8579ZM77.1413 38.7138H68.0209V54.5104L81.7013 46.6123L77.1413 38.7138ZM109.929 19.7844L105.38 11.8793L105.369 11.8858L109.929 19.7844ZM111.099 20.0968L118.997 15.5363L118.981 15.5092L118.965 15.4821L111.099 20.0968ZM124.886 43.9762L132.811 39.4612L132.798 39.4384L132.785 39.4158L124.886 43.9762ZM124.572 45.1459L129.132 53.0445L129.144 53.0375L129.156 53.0305L124.572 45.1459ZM91.784 64.0753L87.224 56.1767L73.5428 64.0753L87.224 71.9738L91.784 64.0753ZM124.572 83.0046L129.156 75.12L129.144 75.113L129.132 75.1061L124.572 83.0046ZM124.886 84.1743L132.785 88.7348L132.798 88.7121L132.811 88.6894L124.886 84.1743ZM111.099 108.054L118.958 112.682L118.977 112.648L118.997 112.614L111.099 108.054ZM109.929 108.366L114.522 100.487L114.505 100.477L114.489 100.468L109.929 108.366ZM77.1413 89.4368L81.7013 81.5382L68.0209 73.6401V89.4368H77.1413ZM49.568 126.438H40.4476V135.559H49.568V126.438ZM75.4312 126.438V135.559H84.5516V126.438H75.4312ZM75.8598 87.2137L80.3921 95.1282L80.4216 95.1113L80.4511 95.0942L75.8598 87.2137ZM76.7149 87.2137L72.1236 95.0942L72.1391 95.1032L72.1547 95.1122L76.7149 87.2137ZM110.043 106.455L105.483 114.354L113.381 118.914L117.941 111.016L110.043 106.455ZM122.976 84.0558L130.874 88.616L135.434 80.7175L127.536 76.1573L122.976 84.0558ZM89.6476 64.814L85.086 72.7117L85.0874 72.7125L89.6476 64.814ZM89.6476 63.332L94.1798 71.2465L94.1938 71.2385L94.2077 71.2305L89.6476 63.332ZM122.976 44.0902L127.536 51.9887L135.435 47.4283L130.874 39.5296L122.976 44.0902ZM110.043 21.6928L117.941 17.1322L113.381 9.23444L105.483 13.7943L110.043 21.6928ZM76.7149 40.9346L72.1547 33.0361L72.1391 33.045L72.1236 33.0541L76.7149 40.9346ZM75.8598 40.9346L80.4511 33.0541L80.4363 33.0455L80.4214 33.0369L75.8598 40.9346ZM75.4312 1.71007H84.5516V-7.41031H75.4312V1.71007ZM49.568 1.71007V-7.41031H40.4476V1.71007H49.568ZM49.1394 40.9368L44.6071 33.0223L44.5776 33.0392L44.5481 33.0564L49.1394 40.9368ZM48.2843 40.9368L52.8756 33.0564L52.86 33.0473L52.8445 33.0383L48.2843 40.9368ZM14.956 21.6951L19.5161 13.7966L11.6174 9.23636L7.05739 17.1352L14.956 21.6951ZM2.02582 44.0925L-5.87281 39.5326L-10.4325 47.4308L-2.53456 51.9909L2.02582 44.0925ZM35.3516 63.3342L39.9132 55.4366L39.912 55.4359L35.3516 63.3342ZM35.3516 64.8163L30.8194 56.9018L30.8053 56.9098L30.7913 56.9179L35.3516 64.8163ZM2.02582 84.058L-2.53456 76.1597L-10.4321 80.7196L-5.87301 88.6176L2.02582 84.058ZM14.956 106.458L7.05719 111.017L11.6171 118.917L19.5161 114.356L14.956 106.458ZM48.2843 87.216L52.8445 95.1145L52.86 95.1055L52.8756 95.0965L48.2843 87.216ZM49.1394 87.216L44.5481 95.0965L44.5629 95.1051L44.5778 95.1137L49.1394 87.216ZM76.2862 128.148V119.028H48.713V128.148V137.269H76.2862V128.148ZM48.713 128.148V119.028C53.278 119.028 56.9783 122.728 56.9783 127.293H47.8579H38.7376C38.7376 132.802 43.2039 137.269 48.713 137.269V128.148ZM47.8579 127.293H56.9783V89.4345H47.8579H38.7376V127.293H47.8579ZM47.8579 89.4345L43.2979 81.536L10.5101 100.465L15.0701 108.364L19.6302 116.262L52.418 97.3331L47.8579 89.4345ZM15.0701 108.364L10.5944 100.417C12.3925 99.4045 14.5911 99.064 16.7435 99.6304L14.4225 108.451L12.1014 117.271C14.687 117.951 17.3511 117.547 19.5458 116.311L15.0701 108.364ZM14.4225 108.451L16.7837 99.6411C18.8917 100.206 20.6893 101.583 21.7849 103.467L13.9003 108.051L6.01567 112.636C7.33933 114.912 9.51085 116.576 12.0612 117.26L14.4225 108.451ZM13.9003 108.051L21.799 103.492L8.01378 79.6122L0.115073 84.1721L-7.78364 88.7319L6.0016 112.611L13.9003 108.051ZM0.115073 84.1721L8.00105 79.5903C10.3129 83.5693 8.92957 88.6488 4.9593 90.9206L0.429589 83.0046L-4.10013 75.0886C-8.89123 77.8302 -10.557 83.9586 -7.7709 88.7538L0.115073 84.1721ZM0.429589 83.0046L4.98989 90.9031L37.7755 71.9737L33.2152 64.0753L28.6549 56.1768L-4.13071 75.1062L0.429589 83.0046ZM33.2152 64.0753L37.7755 56.1768L4.98989 37.2475L0.429589 45.1459L-4.13071 53.0443L28.6549 71.9737L33.2152 64.0753ZM0.429589 45.1459L4.99231 37.2489C8.94002 39.5298 10.2931 44.5772 8.02016 48.5272L0.115073 43.9785L-7.79002 39.4298C-10.5327 44.1961 -8.90168 50.2878 -4.13314 53.0429L0.429589 45.1459ZM0.115073 43.9785L8.01379 48.5383L21.799 24.6588L13.9003 20.099L6.00159 15.5392L-7.78364 39.4187L0.115073 43.9785ZM13.9003 20.099L21.7849 24.6831C20.6891 26.568 18.8913 27.9445 16.7837 28.5094L14.4225 19.7L12.0612 10.8906C9.51124 11.5741 7.33953 13.2379 6.01567 15.5149L13.9003 20.099ZM14.4225 19.7L16.7666 28.514C14.7145 29.0598 12.4344 28.8136 10.4578 27.6548L15.0701 19.7867L19.6825 11.9185C17.3091 10.5272 14.5591 10.2263 12.0783 10.886L14.4225 19.7ZM15.0701 19.7867L10.5101 27.6852L43.2979 46.6146L47.8579 38.716L52.418 30.8175L19.6302 11.8881L15.0701 19.7867ZM47.8579 38.716H56.9783V0.855036H47.8579H38.7376V38.716H47.8579ZM47.8579 0.855036H56.9783C56.9783 5.42011 53.278 9.12039 48.713 9.12039V0V-9.12039C43.2039 -9.12039 38.7376 -4.65399 38.7376 0.855036H47.8579ZM48.713 0V9.12039H76.2862V0V-9.12039H48.713V0ZM76.2862 0V9.12039C71.7212 9.12039 68.0209 5.42011 68.0209 0.855036H77.1413H86.2616C86.2616 -4.65399 81.7953 -9.12039 76.2862 -9.12039V0ZM77.1413 0.855036H68.0209V38.7138H77.1413H86.2616V0.855036H77.1413ZM77.1413 38.7138L81.7013 46.6123L114.489 27.683L109.929 19.7844L105.369 11.8858L72.5812 30.8152L77.1413 38.7138ZM109.929 19.7844L114.478 27.6895C110.52 29.9667 105.511 28.5969 103.232 24.7114L111.099 20.0968L118.965 15.4821C116.207 10.7804 110.154 9.1324 105.38 11.8793L109.929 19.7844ZM111.099 20.0968L103.2 24.6572L116.988 48.5366L124.886 43.9762L132.785 39.4158L118.997 15.5363L111.099 20.0968ZM124.886 43.9762L116.962 48.4913C115.904 46.635 115.589 44.4003 116.161 42.2648L124.971 44.6261L133.78 46.9873C134.471 44.4095 134.092 41.7096 132.811 39.4612L124.886 43.9762ZM124.971 44.6261L116.161 42.2648C116.736 40.121 118.136 38.3381 119.988 37.2613L124.572 45.1459L129.156 53.0305C131.4 51.7257 133.087 49.5735 133.78 46.9873L124.971 44.6261ZM124.572 45.1459L120.012 37.2473L87.224 56.1767L91.784 64.0753L96.3441 71.9738L129.132 53.0445L124.572 45.1459ZM91.784 64.0753L87.224 71.9738L120.012 90.9032L124.572 83.0046L129.132 75.1061L96.3441 56.1767L91.784 64.0753ZM124.572 83.0046L119.988 90.8893C118.136 89.8124 116.736 88.0296 116.161 85.8858L124.971 83.5245L133.78 81.1632C133.087 78.5771 131.4 76.4249 129.156 75.12L124.572 83.0046ZM124.971 83.5245L116.161 85.8858C115.589 83.7503 115.904 81.5155 116.962 79.6593L124.886 84.1743L132.811 88.6894C134.092 86.4409 134.471 83.741 133.78 81.1632L124.971 83.5245ZM124.886 84.1743L116.988 79.6139L103.2 103.493L111.099 108.054L118.997 112.614L132.785 88.7348L124.886 84.1743ZM111.099 108.054L103.24 103.426C105.53 99.5369 110.555 98.1747 114.522 100.487L109.929 108.366L105.336 116.246C110.101 119.023 116.184 117.391 118.958 112.682L111.099 108.054ZM109.929 108.366L114.489 100.468L81.7013 81.5382L77.1413 89.4368L72.5812 97.3354L105.369 116.265L109.929 108.366ZM77.1413 89.4368H68.0209V127.296H77.1413H86.2616V89.4368H77.1413ZM77.1413 127.296H68.0209C68.0209 122.713 71.7368 119.028 76.2862 119.028V128.148V137.269C81.7797 137.269 86.2616 132.818 86.2616 127.296H77.1413ZM49.568 126.438V135.559H75.4312V126.438V117.318H49.568V126.438ZM75.4312 126.438H84.5516V87.9547H75.4312H66.3108V126.438H75.4312ZM75.4312 87.9547H84.5516C84.5516 90.8883 82.9895 93.6408 80.3921 95.1282L75.8598 87.2137L71.3276 79.2992C68.1966 81.0921 66.3108 84.41 66.3108 87.9547H75.4312ZM75.8598 87.2137L80.4511 95.0942C77.8757 96.5946 74.699 96.5946 72.1236 95.0942L76.7149 87.2137L81.3061 79.3332C78.2063 77.5272 74.3684 77.5272 71.2686 79.3332L75.8598 87.2137ZM76.7149 87.2137L72.1547 95.1122L105.483 114.354L110.043 106.455L114.603 98.5569L81.275 79.3152L76.7149 87.2137ZM110.043 106.455L117.941 111.016L130.874 88.616L122.976 84.0558L115.077 79.4955L102.144 101.895L110.043 106.455ZM122.976 84.0558L127.536 76.1573L94.2077 56.9155L89.6476 64.814L85.0874 72.7125L118.415 91.9543L122.976 84.0558ZM89.6476 64.814L94.2092 56.9163C96.7494 58.3836 98.3393 61.1019 98.3393 64.073H89.2189H80.0985C80.0985 67.6551 82.0167 70.9389 85.086 72.7117L89.6476 64.814ZM89.2189 64.073H98.3393C98.3393 67.0066 96.7772 69.7591 94.1798 71.2465L89.6476 63.332L85.1153 55.4174C81.9843 57.2104 80.0985 60.5283 80.0985 64.073H89.2189ZM89.6476 63.332L94.2077 71.2305L127.536 51.9887L122.976 44.0902L118.415 36.1917L85.0874 55.4335L89.6476 63.332ZM122.976 44.0902L130.874 39.5296L117.941 17.1322L110.043 21.6928L102.145 26.2534L115.077 48.6508L122.976 44.0902ZM110.043 21.6928L105.483 13.7943L72.1547 33.0361L76.7149 40.9346L81.275 48.8331L114.603 29.5914L110.043 21.6928ZM76.7149 40.9346L72.1236 33.0541C74.699 31.5536 77.8757 31.5536 80.4511 33.0541L75.8598 40.9346L71.2686 48.815C74.3684 50.621 78.2063 50.621 81.3061 48.815L76.7149 40.9346ZM75.8598 40.9346L80.4214 33.0369C82.9617 34.5041 84.5516 37.2225 84.5516 40.1935H75.4312H66.3108C66.3108 43.7757 68.229 47.0595 71.2982 48.8322L75.8598 40.9346ZM75.4312 40.1935H84.5516V1.71007H75.4312H66.3108V40.1935H75.4312ZM75.4312 1.71007V-7.41031H49.568V1.71007V10.8305H75.4312V1.71007ZM49.568 1.71007H40.4476V40.1958H49.568H58.6884V1.71007H49.568ZM49.568 40.1958H40.4476C40.4476 37.2622 42.0097 34.5097 44.6071 33.0223L49.1394 40.9368L53.6716 48.8514C56.8026 47.0585 58.6884 43.7405 58.6884 40.1958H49.568ZM49.1394 40.9368L44.5481 33.0564C47.1235 31.5559 50.3002 31.5559 52.8756 33.0564L48.2843 40.9368L43.6931 48.8173C46.7929 50.6233 50.6308 50.6233 53.7306 48.8173L49.1394 40.9368ZM48.2843 40.9368L52.8445 33.0383L19.5161 13.7966L14.956 21.6951L10.3959 29.5936L43.7242 48.8354L48.2843 40.9368ZM14.956 21.6951L7.05739 17.1352L-5.87281 39.5326L2.02582 44.0925L9.92445 48.6525L22.8547 26.2551L14.956 21.6951ZM2.02582 44.0925L-2.53456 51.9909L30.7913 71.2326L35.3516 63.3342L39.912 55.4359L6.58621 36.1941L2.02582 44.0925ZM35.3516 63.3342L30.7901 71.2319C28.2498 69.7647 26.6599 67.0464 26.6599 64.0753H35.7803H44.9007C44.9007 60.4931 42.9825 57.2093 39.9132 55.4366L35.3516 63.3342ZM35.7803 64.0753H26.6599C26.6599 61.1419 28.2218 58.3893 30.8194 56.9018L35.3516 64.8163L39.8839 72.7309C43.015 70.9378 44.9007 67.6198 44.9007 64.0753H35.7803ZM35.3516 64.8163L30.7913 56.9179L-2.53456 76.1597L2.02582 84.058L6.5862 91.9564L39.912 72.7147L35.3516 64.8163ZM2.02582 84.058L-5.87301 88.6176L7.05719 111.017L14.956 106.458L22.8549 101.898L9.92466 79.4984L2.02582 84.058ZM14.956 106.458L19.5161 114.356L52.8445 95.1145L48.2843 87.216L43.7242 79.3175L10.3959 98.5592L14.956 106.458ZM48.2843 87.216L52.8756 95.0965C50.3002 96.5969 47.1235 96.5969 44.5481 95.0965L49.1394 87.216L53.7306 79.3355C50.6308 77.5295 46.7929 77.5295 43.6931 79.3355L48.2843 87.216ZM49.1394 87.216L44.5778 95.1137C42.0375 93.6464 40.4476 90.9281 40.4476 87.957H49.568H58.6884C58.6884 84.3749 56.7702 81.0911 53.701 79.3183L49.1394 87.216ZM49.568 87.957H40.4476V126.438H49.568H58.6884V87.957H49.568Z" fill="currentColor" mask="url(#path-1-inside-1_243_1384)"/>
</svg>
